<mxfile host="app.diagrams.net" modified="2021-11-18T11:53:19.528Z" agent="5.0 (Windows NT 10.0; Win64; x64) AppleWebKit/537.36 (KHTML, like Gecko) Chrome/94.0.4606.81 Safari/537.36" etag="MGCIS6cn_802HhGSYC9J" version="15.8.2" type="github">
  <diagram id="C5RBs43oDa-KdzZeNtuy" name="Page-1">
    <mxGraphModel dx="1422" dy="772" grid="1" gridSize="10" guides="1" tooltips="1" connect="1" arrows="1" fold="1" page="1" pageScale="1" pageWidth="827" pageHeight="1169" math="0" shadow="0">
      <root>
        <mxCell id="WIyWlLk6GJQsqaUBKTNV-0" />
        <mxCell id="WIyWlLk6GJQsqaUBKTNV-1" parent="WIyWlLk6GJQsqaUBKTNV-0" />
        <mxCell id="WIyWlLk6GJQsqaUBKTNV-3" value="表示层" style="rounded=1;whiteSpace=wrap;html=1;fontSize=12;glass=0;strokeWidth=1;shadow=0;" parent="WIyWlLk6GJQsqaUBKTNV-1" vertex="1">
          <mxGeometry x="160" y="80" width="390" height="70" as="geometry" />
        </mxCell>
        <mxCell id="a6otf2O9Nz8douh8GNLR-1" value="" style="rounded=1;whiteSpace=wrap;html=1;fontSize=12;glass=0;strokeWidth=1;shadow=0;" vertex="1" parent="WIyWlLk6GJQsqaUBKTNV-1">
          <mxGeometry x="160" y="230" width="430" height="150" as="geometry" />
        </mxCell>
        <mxCell id="a6otf2O9Nz8douh8GNLR-2" value="业务层" style="rounded=0;whiteSpace=wrap;html=1;" vertex="1" parent="WIyWlLk6GJQsqaUBKTNV-1">
          <mxGeometry x="100" y="230" width="60" height="150" as="geometry" />
        </mxCell>
        <mxCell id="a6otf2O9Nz8douh8GNLR-3" value="登录信息配置" style="rounded=0;whiteSpace=wrap;html=1;" vertex="1" parent="WIyWlLk6GJQsqaUBKTNV-1">
          <mxGeometry x="180" y="240" width="110" height="40" as="geometry" />
        </mxCell>
        <mxCell id="a6otf2O9Nz8douh8GNLR-5" value="权限，用户管理" style="rounded=0;whiteSpace=wrap;html=1;" vertex="1" parent="WIyWlLk6GJQsqaUBKTNV-1">
          <mxGeometry x="304" y="240" width="110" height="40" as="geometry" />
        </mxCell>
        <mxCell id="a6otf2O9Nz8douh8GNLR-6" value="确诊人员管理" style="rounded=0;whiteSpace=wrap;html=1;" vertex="1" parent="WIyWlLk6GJQsqaUBKTNV-1">
          <mxGeometry x="440" y="240" width="110" height="40" as="geometry" />
        </mxCell>
        <mxCell id="a6otf2O9Nz8douh8GNLR-7" value="治愈人" style="rounded=0;whiteSpace=wrap;html=1;" vertex="1" parent="WIyWlLk6GJQsqaUBKTNV-1">
          <mxGeometry x="190" y="300" width="110" height="40" as="geometry" />
        </mxCell>
        <mxCell id="a6otf2O9Nz8douh8GNLR-8" value="打卡信息录入" style="rounded=0;whiteSpace=wrap;html=1;" vertex="1" parent="WIyWlLk6GJQsqaUBKTNV-1">
          <mxGeometry x="310" y="300" width="110" height="40" as="geometry" />
        </mxCell>
        <mxCell id="a6otf2O9Nz8douh8GNLR-9" value="密接过程" style="rounded=0;whiteSpace=wrap;html=1;" vertex="1" parent="WIyWlLk6GJQsqaUBKTNV-1">
          <mxGeometry x="440" y="300" width="110" height="40" as="geometry" />
        </mxCell>
        <mxCell id="a6otf2O9Nz8douh8GNLR-10" value="" style="rounded=1;whiteSpace=wrap;html=1;fontSize=12;glass=0;strokeWidth=1;shadow=0;" vertex="1" parent="WIyWlLk6GJQsqaUBKTNV-1">
          <mxGeometry x="160" y="450" width="430" height="150" as="geometry" />
        </mxCell>
        <mxCell id="a6otf2O9Nz8douh8GNLR-11" value="系统服务层" style="rounded=0;whiteSpace=wrap;html=1;" vertex="1" parent="WIyWlLk6GJQsqaUBKTNV-1">
          <mxGeometry x="100" y="450" width="60" height="150" as="geometry" />
        </mxCell>
        <mxCell id="a6otf2O9Nz8douh8GNLR-12" value="安全认证" style="rounded=0;whiteSpace=wrap;html=1;" vertex="1" parent="WIyWlLk6GJQsqaUBKTNV-1">
          <mxGeometry x="210" y="490" width="150" height="55" as="geometry" />
        </mxCell>
        <mxCell id="a6otf2O9Nz8douh8GNLR-13" value="事务管理" style="rounded=0;whiteSpace=wrap;html=1;" vertex="1" parent="WIyWlLk6GJQsqaUBKTNV-1">
          <mxGeometry x="390" y="490" width="134" height="55" as="geometry" />
        </mxCell>
        <mxCell id="a6otf2O9Nz8douh8GNLR-18" value="" style="rounded=0;html=1;jettySize=auto;orthogonalLoop=1;fontSize=11;endArrow=block;endFill=0;endSize=8;strokeWidth=1;shadow=0;labelBackgroundColor=none;edgeStyle=orthogonalEdgeStyle;" edge="1" parent="WIyWlLk6GJQsqaUBKTNV-1">
          <mxGeometry relative="1" as="geometry">
            <mxPoint x="354.5" y="380" as="sourcePoint" />
            <mxPoint x="354.5" y="450" as="targetPoint" />
          </mxGeometry>
        </mxCell>
        <mxCell id="a6otf2O9Nz8douh8GNLR-23" value="" style="rounded=1;whiteSpace=wrap;html=1;fontSize=12;glass=0;strokeWidth=1;shadow=0;" vertex="1" parent="WIyWlLk6GJQsqaUBKTNV-1">
          <mxGeometry x="160" y="660" width="430" height="150" as="geometry" />
        </mxCell>
        <mxCell id="a6otf2O9Nz8douh8GNLR-24" value="系统层" style="rounded=0;whiteSpace=wrap;html=1;" vertex="1" parent="WIyWlLk6GJQsqaUBKTNV-1">
          <mxGeometry x="100" y="660" width="60" height="150" as="geometry" />
        </mxCell>
        <mxCell id="a6otf2O9Nz8douh8GNLR-25" value="web服务" style="rounded=0;whiteSpace=wrap;html=1;" vertex="1" parent="WIyWlLk6GJQsqaUBKTNV-1">
          <mxGeometry x="210" y="670" width="150" height="55" as="geometry" />
        </mxCell>
        <mxCell id="a6otf2O9Nz8douh8GNLR-26" value="数据库" style="rounded=0;whiteSpace=wrap;html=1;" vertex="1" parent="WIyWlLk6GJQsqaUBKTNV-1">
          <mxGeometry x="390" y="670" width="134" height="55" as="geometry" />
        </mxCell>
        <mxCell id="a6otf2O9Nz8douh8GNLR-28" value="" style="rounded=0;html=1;jettySize=auto;orthogonalLoop=1;fontSize=11;endArrow=block;endFill=0;endSize=8;strokeWidth=1;shadow=0;labelBackgroundColor=none;edgeStyle=orthogonalEdgeStyle;exitX=0.5;exitY=1;exitDx=0;exitDy=0;entryX=0.453;entryY=0;entryDx=0;entryDy=0;entryPerimeter=0;" edge="1" parent="WIyWlLk6GJQsqaUBKTNV-1" source="WIyWlLk6GJQsqaUBKTNV-3" target="a6otf2O9Nz8douh8GNLR-1">
          <mxGeometry relative="1" as="geometry">
            <mxPoint x="365.5" y="150" as="sourcePoint" />
            <mxPoint x="355" y="220" as="targetPoint" />
          </mxGeometry>
        </mxCell>
        <mxCell id="a6otf2O9Nz8douh8GNLR-30" value="" style="rounded=0;html=1;jettySize=auto;orthogonalLoop=1;fontSize=11;endArrow=block;endFill=0;endSize=8;strokeWidth=1;shadow=0;labelBackgroundColor=none;edgeStyle=orthogonalEdgeStyle;entryX=0.472;entryY=-0.007;entryDx=0;entryDy=0;entryPerimeter=0;exitX=0.47;exitY=0.993;exitDx=0;exitDy=0;exitPerimeter=0;" edge="1" parent="WIyWlLk6GJQsqaUBKTNV-1" source="a6otf2O9Nz8douh8GNLR-10" target="a6otf2O9Nz8douh8GNLR-23">
          <mxGeometry relative="1" as="geometry">
            <mxPoint x="620" y="560" as="sourcePoint" />
            <mxPoint x="620" y="620" as="targetPoint" />
            <Array as="points">
              <mxPoint x="362" y="595" />
            </Array>
          </mxGeometry>
        </mxCell>
        <mxCell id="a6otf2O9Nz8douh8GNLR-31" value="操作系统" style="rounded=0;whiteSpace=wrap;html=1;" vertex="1" parent="WIyWlLk6GJQsqaUBKTNV-1">
          <mxGeometry x="210" y="740" width="310" height="40" as="geometry" />
        </mxCell>
      </root>
    </mxGraphModel>
  </diagram>
</mxfile>
